<svg width="14" height="14" viewBox="0 0 14 14" fill="none" xmlns="http://www.w3.org/2000/svg">
<g clip-path="url(#clip0_71_2093)">
<path d="M0.5 11.75V2.25C0.5 1.98478 0.605357 1.73043 0.792893 1.54289C0.98043 1.35535 1.23478 1.25 1.5 1.25H5.19C5.41843 1.24334 5.64226 1.31513 5.82421 1.45341C6.00615 1.59169 6.13525 1.78812 6.19 2.01L6.5 3.25H12.5C12.7652 3.25 13.0196 3.35535 13.2071 3.54289C13.3946 3.73043 13.5 3.98478 13.5 4.25V11.75C13.5 12.0152 13.3946 12.2696 13.2071 12.4571C13.0196 12.6446 12.7652 12.75 12.5 12.75H1.5C1.23478 12.75 0.98043 12.6446 0.792893 12.4571C0.605357 12.2696 0.5 12.0152 0.5 11.75Z" stroke="#000001" stroke-linecap="round" stroke-linejoin="round"/>
<path d="M7.13 6.25V9.75" stroke="#000001" stroke-linecap="round" stroke-linejoin="round"/>
<path d="M5.38 8H8.88" stroke="#000001" stroke-linecap="round" stroke-linejoin="round"/>
</g>
<defs>
<clipPath id="clip0_71_2093">
<rect width="14" height="14" fill="white"/>
</clipPath>
</defs>
</svg>
