<svg width="14" height="14" viewBox="0 0 14 14" fill="none" xmlns="http://www.w3.org/2000/svg">
<g clip-path="url(#clip0_71_1473)">
<path d="M13 6.81001L7.05 12.81C6.81914 13.0452 6.5437 13.2321 6.23979 13.3597C5.93588 13.4872 5.6096 13.5529 5.28 13.5529C4.95041 13.5529 4.62412 13.4872 4.32021 13.3597C4.0163 13.2321 3.74086 13.0452 3.51 12.81L1.73 11C1.26403 10.5267 1.00285 9.88919 1.00285 9.22501C1.00285 8.56083 1.26403 7.92329 1.73 7.45001L8.07 1.09001C8.25593 0.902553 8.47713 0.753764 8.72085 0.652227C8.96457 0.55069 9.22598 0.498413 9.49 0.498413C9.75403 0.498413 10.0154 0.55069 10.2592 0.652227C10.5029 0.753764 10.7241 0.902553 10.91 1.09001L11.62 1.80001C11.8075 1.98594 11.9562 2.20714 12.0578 2.45086C12.1593 2.69458 12.2116 2.95599 12.2116 3.22001C12.2116 3.48403 12.1593 3.74544 12.0578 3.98916C11.9562 4.23288 11.8075 4.45408 11.62 4.64001L6 10.28C5.90704 10.3737 5.79644 10.4481 5.67458 10.4989C5.55272 10.5497 5.42201 10.5758 5.29 10.5758C5.15799 10.5758 5.02728 10.5497 4.90542 10.4989C4.78357 10.4481 4.67296 10.3737 4.58 10.28L4.23 9.92001C4.13627 9.82705 4.06188 9.71645 4.01111 9.59459C3.96034 9.47273 3.9342 9.34202 3.9342 9.21001C3.9342 9.078 3.96034 8.94729 4.01111 8.82543C4.06188 8.70357 4.13627 8.59297 4.23 8.50001L8 4.76001" stroke="#000001" stroke-linecap="round" stroke-linejoin="round"/>
</g>
<defs>
<clipPath id="clip0_71_1473">
<rect width="14" height="14" fill="white"/>
</clipPath>
</defs>
</svg>
