<svg width="14" height="14" viewBox="0 0 14 14" fill="none" xmlns="http://www.w3.org/2000/svg">
<g clip-path="url(#clip0_71_2418)">
<path d="M13.28 9.39001L9.39 13.28C9.24938 13.4205 9.05875 13.4994 8.86 13.4994C8.66125 13.4994 8.47063 13.4205 8.33 13.28L0.610002 5.56001C0.571211 5.52293 0.541201 5.47764 0.522169 5.42747C0.503136 5.37729 0.495563 5.32349 0.500002 5.27001L1.09 1.44001C1.09481 1.34875 1.13323 1.26249 1.19786 1.19787C1.26248 1.13325 1.34874 1.09483 1.44 1.09001L5.27 0.500013C5.32348 0.495574 5.37728 0.503148 5.42746 0.52218C5.47763 0.541213 5.52292 0.571222 5.56 0.610013L13.28 8.33001C13.4205 8.47064 13.4993 8.66126 13.4993 8.86001C13.4993 9.05876 13.4205 9.24939 13.28 9.39001V9.39001Z" stroke="#000001" stroke-linecap="round" stroke-linejoin="round"/>
<path d="M4.11 4.60999C4.38614 4.60999 4.61 4.38613 4.61 4.10999C4.61 3.83384 4.38614 3.60999 4.11 3.60999C3.83386 3.60999 3.61 3.83384 3.61 4.10999C3.61 4.38613 3.83386 4.60999 4.11 4.60999Z" stroke="#000001" stroke-linecap="round" stroke-linejoin="round"/>
</g>
<defs>
<clipPath id="clip0_71_2418">
<rect width="14" height="14" fill="white"/>
</clipPath>
</defs>
</svg>
