<svg width="14" height="14" viewBox="0 0 14 14" fill="none" stroke="currentColor" stroke-width="1.1" stroke-linecap="round" stroke-linejoin="round" xmlns="http://www.w3.org/2000/svg">
  <path d="M6.5 2.4 C5.6 2.4 5 3 5 3.8 C4.2 3.8 3.6 4.4 3.6 5.2 C2.9 5.2 2.4 5.7 2.4 6.4 C2.4 6.9 2.7 7.3 3.1 7.5 C2.7 7.8 2.4 8.2 2.4 8.7 C2.4 9.5 3 10.1 3.8 10.1 C3.9 10.7 4.5 11.2 5.2 11.2 C5.7 11.2 6.1 11 6.4 10.6 L6.5 10.6"/>
  <path d="M7.5 2.4 C8.4 2.4 9 3 9 3.8 C9.8 3.8 10.4 4.4 10.4 5.2 C11.1 5.2 11.6 5.7 11.6 6.4 C11.6 6.9 11.3 7.3 10.9 7.5 C11.3 7.8 11.6 8.2 11.6 8.7 C11.6 9.5 11 10.1 10.2 10.1 C10.1 10.7 9.5 11.2 8.8 11.2 C8.3 11.2 7.9 11 7.6 10.6 L7.5 10.6"/>
  <path d="M7 2.6 V10.8"/>
  <path d="M5 6 L6 6.6"/>
  <path d="M9 6 L8 6.6"/>
  <path d="M5 8.6 L6 8"/>
  <path d="M9 8.6 L8 8"/>
</svg>
