<svg width="14" height="14" viewBox="0 0 14 14" fill="none" xmlns="http://www.w3.org/2000/svg">
  <path d="M5 12.24L0.5 13.5L1.76 8.99999L10 0.799991C10.0931 0.704745 10.2044 0.629066 10.3271 0.577398C10.4499 0.52573 10.5818 0.499115 10.715 0.499115C10.8482 0.499115 10.9801 0.52573 11.1029 0.577398C11.2256 0.629066 11.3369 0.704745 11.43 0.799991L13.2 2.57999C13.2937 2.67295 13.3681 2.78355 13.4189 2.90541C13.4697 3.02727 13.4958 3.15798 13.4958 3.28999C13.4958 3.422 13.4697 3.55271 13.4189 3.67457C13.3681 3.79643 13.2937 3.90703 13.2 3.99999L5 12.24Z" stroke="currentColor" stroke-linecap="round" stroke-linejoin="round"/>
</svg>
