<svg width="14" height="14" viewBox="0 0 14 14" fill="none" xmlns="http://www.w3.org/2000/svg">
<g clip-path="url(#clip0_71_1798)">
<path d="M5.5 12.5C5.77635 12.2453 5.99691 11.936 6.14777 11.5918C6.29864 11.2476 6.37652 10.8758 6.37652 10.5C6.37652 10.1242 6.29864 9.75241 6.14777 9.40818C5.99691 9.06395 5.77635 8.75472 5.5 8.5C5.24528 8.22365 4.93605 8.00309 4.59182 7.85222C4.24759 7.70136 3.87584 7.62347 3.5 7.62347C3.12416 7.62347 2.75241 7.70136 2.40818 7.85222C2.06395 8.00309 1.75472 8.22365 1.5 8.5C0.5 9.5 0.5 13.5 0.5 13.5C0.5 13.5 4.5 13.5 5.5 12.5Z" stroke="#000001" stroke-linecap="round" stroke-linejoin="round"/>
<path d="M12.92 1.08C12.5736 0.737992 12.1143 0.534072 11.6283 0.506457C11.1423 0.478843 10.6629 0.629432 10.28 0.929995L4.5 5L3.79 7.64C4.44162 7.72254 5.0452 8.0261 5.5 8.5C5.9739 8.95479 6.27745 9.55838 6.36 10.21L9 9.5L13.07 3.72C13.3706 3.33707 13.5212 2.85768 13.4935 2.37167C13.4659 1.88566 13.262 1.42641 12.92 1.08V1.08Z" stroke="#000001" stroke-linecap="round" stroke-linejoin="round"/>
<path d="M0.5 13.5L3.75 10.25" stroke="#000001" stroke-linecap="round" stroke-linejoin="round"/>
</g>
<defs>
<clipPath id="clip0_71_1798">
<rect width="14" height="14" fill="white"/>
</clipPath>
</defs>
</svg>
