<svg width="14" height="14" viewBox="0 0 14 14" fill="none" xmlns="http://www.w3.org/2000/svg">
<g clip-path="url(#clip0_71_1793)">
<path d="M0.5 13.5L2.5 11.5" stroke="#000001" stroke-linecap="round" stroke-linejoin="round"/>
<path d="M4.71 12.29C4.61704 12.3837 4.50643 12.4581 4.38457 12.5089C4.26272 12.5597 4.13201 12.5858 4 12.5858C3.86799 12.5858 3.73728 12.5597 3.61542 12.5089C3.49356 12.4581 3.38296 12.3837 3.29 12.29L1.71 10.71C1.61627 10.617 1.54188 10.5064 1.49111 10.3846C1.44034 10.2627 1.4142 10.132 1.4142 10C1.4142 9.868 1.44034 9.73729 1.49111 9.61543C1.54188 9.49357 1.61627 9.38297 1.71 9.29001L9.88 1.12001C10.2778 0.722183 10.8174 0.498688 11.38 0.498688C11.9426 0.498688 12.4822 0.722183 12.88 1.12001C13.2778 1.51783 13.5013 2.0574 13.5013 2.62001C13.5013 3.18262 13.2778 3.72218 12.88 4.12001L4.71 12.29Z" stroke="#000001" stroke-linecap="round" stroke-linejoin="round"/>
<path d="M11.5 5.50001L7.21 1.21001C7.11704 1.11629 7.00644 1.04189 6.88458 0.991122C6.76272 0.940353 6.63201 0.914215 6.5 0.914215C6.36799 0.914215 6.23728 0.940353 6.11542 0.991122C5.99356 1.04189 5.88296 1.11629 5.79 1.21001L2.5 4.50001" stroke="#000001" stroke-linecap="round" stroke-linejoin="round"/>
</g>
<defs>
<clipPath id="clip0_71_1793">
<rect width="14" height="14" fill="white"/>
</clipPath>
</defs>
</svg>
