<svg width="14" height="14" viewBox="0 0 13 14" fill="none" xmlns="http://www.w3.org/2000/svg">
  <path d="M4.69794 2.25L5.12794 1.14C5.20046 0.952064 5.32804 0.790411 5.49399 0.676212C5.65993 0.562014 5.8565 0.500595 6.05794 0.5H6.87794C7.07938 0.500595 7.27594 0.562014 7.44189 0.676212C7.60783 0.790411 7.73542 0.952064 7.80794 1.14L8.23794 2.25L9.69794 3.09L10.8779 2.91C11.0744 2.88333 11.2744 2.91567 11.4525 3.00292C11.6305 3.09017 11.7786 3.22838 11.8779 3.4L12.2779 4.1C12.3804 4.27435 12.4277 4.47568 12.4134 4.67742C12.3991 4.87916 12.324 5.07183 12.1979 5.23L11.4679 6.16V7.84L12.2179 8.77C12.344 8.92817 12.4191 9.12084 12.4334 9.32258C12.4477 9.52432 12.4004 9.72565 12.2979 9.9L11.8979 10.6C11.7986 10.7716 11.6505 10.9098 11.4725 10.9971C11.2944 11.0843 11.0944 11.1167 10.8979 11.09L9.71794 10.91L8.25794 11.75L7.82794 12.86C7.75542 13.0479 7.62783 13.2096 7.46189 13.3238C7.29594 13.438 7.09938 13.4994 6.89794 13.5H6.05794C5.8565 13.4994 5.65993 13.438 5.49399 13.3238C5.32804 13.2096 5.20046 13.0479 5.12794 12.86L4.69794 11.75L3.23794 10.91L2.05794 11.09C1.86145 11.1167 1.66148 11.0843 1.48342 10.9971C1.30536 10.9098 1.15726 10.7716 1.05794 10.6L0.657937 9.9C0.555439 9.72565 0.508215 9.52432 0.522497 9.32258C0.53678 9.12084 0.611898 8.92817 0.737937 8.77L1.46794 7.84V6.16L0.717937 5.23C0.591898 5.07183 0.51678 4.87916 0.502497 4.67742C0.488215 4.47568 0.535439 4.27435 0.637937 4.1L1.03794 3.4C1.13726 3.22838 1.28536 3.09017 1.46342 3.00292C1.64148 2.91567 1.84145 2.88333 2.03794 2.91L3.21794 3.09L4.69794 2.25ZM4.46794 7C4.46794 7.39556 4.58524 7.78224 4.805 8.11114C5.02476 8.44004 5.33712 8.69638 5.70257 8.84776C6.06802 8.99913 6.47016 9.03874 6.85812 8.96157C7.24608 8.8844 7.60245 8.69392 7.88215 8.41421C8.16186 8.13451 8.35234 7.77814 8.42951 7.39018C8.50668 7.00222 8.46707 6.60009 8.3157 6.23463C8.16432 5.86918 7.90798 5.55682 7.57908 5.33706C7.25018 5.1173 6.8635 5 6.46794 5C5.9375 5 5.4288 5.21071 5.05372 5.58579C4.67865 5.96086 4.46794 6.46957 4.46794 7Z" stroke="currentColor" stroke-linecap="round" stroke-linejoin="round"/>
</svg>
