<svg width="14" height="14" viewBox="0 0 14 14" fill="none" xmlns="http://www.w3.org/2000/svg">
<path d="M5.23 2.25L5.66 1.14C5.73251 0.952064 5.8601 0.790411 6.02605 0.676212C6.19199 0.562014 6.38856 0.500595 6.59 0.5H7.41C7.61144 0.500595 7.808 0.562014 7.97395 0.676212C8.13989 0.790411 8.26748 0.952064 8.34 1.14L8.77 2.25L10.23 3.09L11.41 2.91C11.6065 2.88333 11.8065 2.91567 11.9845 3.00292C12.1626 3.09017 12.3107 3.22838 12.41 3.4L12.81 4.1C12.9125 4.27435 12.9597 4.47568 12.9454 4.67742C12.9312 4.87916 12.856 5.07183 12.73 5.23L12 6.16V7.84L12.75 8.77C12.876 8.92817 12.9512 9.12084 12.9654 9.32258C12.9797 9.52432 12.9325 9.72565 12.83 9.9L12.43 10.6C12.3307 10.7716 12.1826 10.9098 12.0045 10.9971C11.8265 11.0843 11.6265 11.1167 11.43 11.09L10.25 10.91L8.79 11.75L8.36 12.86C8.28748 13.0479 8.15989 13.2096 7.99395 13.3238C7.828 13.438 7.63144 13.4994 7.43 13.5H6.59C6.38856 13.4994 6.19199 13.438 6.02605 13.3238C5.8601 13.2096 5.73251 13.0479 5.66 12.86L5.23 11.75L3.77 10.91L2.59 11.09C2.39351 11.1167 2.19354 11.0843 2.01548 10.9971C1.83742 10.9098 1.68932 10.7716 1.59 10.6L1.19 9.9C1.0875 9.72565 1.04027 9.52432 1.05456 9.32258C1.06884 9.12084 1.14396 8.92817 1.27 8.77L2 7.84V6.16L1.25 5.23C1.12396 5.07183 1.04884 4.87916 1.03456 4.67742C1.02027 4.47568 1.0675 4.27435 1.17 4.1L1.57 3.4C1.66932 3.22838 1.81742 3.09017 1.99548 3.00292C2.17354 2.91567 2.37351 2.88333 2.57 2.91L3.75 3.09L5.23 2.25ZM5 7C5 7.39556 5.11729 7.78224 5.33706 8.11114C5.55682 8.44004 5.86918 8.69638 6.23463 8.84776C6.60008 8.99913 7.00221 9.03874 7.39018 8.96157C7.77814 8.8844 8.1345 8.69392 8.41421 8.41421C8.69391 8.13451 8.8844 7.77814 8.96157 7.39018C9.03874 7.00222 8.99913 6.60009 8.84776 6.23463C8.69638 5.86918 8.44003 5.55682 8.11114 5.33706C7.78224 5.1173 7.39556 5 7 5C6.46956 5 5.96086 5.21071 5.58578 5.58579C5.21071 5.96086 5 6.46957 5 7V7Z" stroke="#000001" stroke-linecap="round" stroke-linejoin="round"/>
</svg>
